HIERARCHY
ROOT Hips
{
  OFFSET 1.44925e-005 102.336 -0.101585
  CHANNELS 6 Xposition Yposition Zposition Zrotation Xrotation Yrotation
  JOINT LeftUpLeg
  {
    OFFSET 8.9458 -8.66707 0.101652
    CHANNELS 3 Zrotation Xrotation Yrotation
    JOINT LeftLeg
    {
      OFFSET 0 -44.4227 1.3727
      CHANNELS 3 Zrotation Xrotation Yrotation
      JOINT LeftFoot
      {
        OFFSET -0.253549 -42.0924 -1.46059
        CHANNELS 3 Zrotation Xrotation Yrotation
        JOINT LeftToes
        {
          OFFSET -0.04 -4.41509 8.4991
          CHANNELS 3 Zrotation Xrotation Yrotation
          End Site
          {
            OFFSET 0.08 -0.047448 9.77979
          }
        }
      }
    }
  }
  JOINT Spine
  {
    OFFSET 0 11.8905 0
    CHANNELS 3 Zrotation Xrotation Yrotation
    JOINT Spine1
    {
      OFFSET 0 25.6574 0.127663
      CHANNELS 3 Zrotation Xrotation Yrotation
      JOINT RightShoulder
      {
        OFFSET -8.99 -0.362252 -0.22
        CHANNELS 3 Zrotation Xrotation Yrotation
        JOINT RightArm
        {
          OFFSET -10.2827 -0.00338 0.322123
          CHANNELS 3 Zrotation Xrotation Yrotation
          JOINT RightForeArm
          {
            OFFSET -26.364 0.099144 -1.42434
            CHANNELS 3 Zrotation Xrotation Yrotation
            JOINT RightHand
            {
              OFFSET -22.0324 0.085362 1.02216
              CHANNELS 3 Zrotation Xrotation Yrotation
              End Site
              {
                OFFSET -13.3284 -0.6 1.50291
              }
            }
          }
        }
      }
      JOINT LeftShoulder1
      {
        OFFSET 8.99 -0.362252 -0.22
        CHANNELS 3 Zrotation Xrotation Yrotation
        JOINT LeftArm
        {
          OFFSET 10.2827 -0.00337999 0.322123
          CHANNELS 3 Zrotation Xrotation Yrotation
          JOINT LeftForeArm
          {
            OFFSET 26.2597 0.099144 -1.42434
            CHANNELS 3 Zrotation Xrotation Yrotation
            JOINT LeftHand
            {
              OFFSET 22.0902 0.085362 1.02216
              CHANNELS 3 Zrotation Xrotation Yrotation
              End Site
              {
                OFFSET 13.419 -0.6 1.50291
              }
            }
          }
        }
      }
      JOINT Head
      {
        OFFSET 0 8.73416 0.011341
        CHANNELS 3 Zrotation Xrotation Yrotation
        End Site
        {
          OFFSET -0.29 12.7742 2.51395
        }
      }
    }
  }
  JOINT RightUpLeg
  {
    OFFSET -8.9458 -8.66707 0.101652
    CHANNELS 3 Zrotation Xrotation Yrotation
    JOINT RightLeg
    {
      OFFSET 0 -44.4227 1.3727
      CHANNELS 3 Zrotation Xrotation Yrotation
      JOINT RightFoot
      {
        OFFSET 0.253549 -42.0924 -1.46059
        CHANNELS 3 Zrotation Xrotation Yrotation
        JOINT RightToes
        {
          OFFSET 0.04 -4.41509 8.4991
          CHANNELS 3 Zrotation Xrotation Yrotation
          End Site
          {
            OFFSET -0.08 -0.137448 9.77979
          }
        }
      }
    }
  }
}
MOTION
Frames:	16
Frame Time:	0.0333333
25.487 93.8913 4.05599 -6.97789 6.59995 -85.797 6.23264 10.2631 -2.23706 1.45165 57.2557 12.2887 -8.87633 -12.3016 -0.303438 -1.31804e-009 8.75243e-006 -1.47668e-008 -12.6096 19.1812 -9.79064 26.9357 -2.89507 -15.3683 28.0019 1.14849 -0.773269 24.0894 -24.6807 -49.6129 29.8921 9.27244 56.7346 -6.5175 9.85107 -4.68945 -2.43276 -0.0385102 3.84851 -67.083 -20.6846 -101.278 2.90719 57.0266 -13.0168 5.82328 9.61819 -0.917488 0.261021 -11.5036 17.5869 7.25319 -23.4523 -18.7946 -0.783077 36.5275 -8.24088 -4.91364 -13.8531 -0.479979 0.0462048 0.000530889 0.662642 
22.4367 94.4803 3.59438 -6.69496 6.82736 -85.3053 6.66328 2.9468 -2.58188 2.33587 69.0404 15.1939 -8.61918 -9.4714 -0.0957656 -1.31804e-009 8.75243e-006 -1.47668e-008 -12.3902 20.0872 -9.30851 28.0332 -4.13493 -14.6884 27.6299 1.10392 -0.87549 25.6622 -30.1398 -44.8225 28.4589 9.91067 56.6706 -7.648 9.80503 -3.99965 -4.25023 0.0159238 3.39184 -65.6776 -19.6853 -100.876 2.92651 57.3009 -13.7516 5.82328 9.61819 -0.917488 -0.978801 -11.5595 15.2077 7.65187 -21.3323 -20.0265 -0.80079 36.0377 -7.79649 -4.47379 -15.7986 -0.550905 0.0462048 0.000530889 0.662642 
19.4484 95.4664 3.28446 -6.80315 6.52866 -85.3223 6.0095 -3.77654 -3.10789 4.39201 78.7739 14.7535 -8.41497 -10.467 -0.16068 -1.31804e-009 8.75243e-006 -1.47668e-008 -11.8962 20.3553 -8.13233 28.0851 -5.50682 -13.0242 28.3737 1.21496 -0.61161 28.5741 -33.5775 -36.4874 24.8996 11.4215 56.3497 -8.35404 9.73778 -3.07584 -8.90092 0.267272 1.90193 -60.7325 -19.1436 -97.4937 3.13949 57.3009 -15.6898 5.82328 9.61819 -0.917488 -3.19732 -10.5036 12.1134 7.71504 -18.2434 -20.4604 -0.524981 34.3615 -7.03503 -3.70069 -16.5099 -0.523348 0.0462048 0.000530889 0.662642 
16.4916 96.4815 3.102 -7.22788 5.95194 -86.1528 4.83375 -9.96454 -3.23488 12.935 86.1857 5.07875 -8.11243 -12.5007 -0.288467 -1.31804e-009 8.75243e-006 -1.47668e-008 -10.3683 19.7976 -6.45099 26.2339 -6.33412 -10.4425 30.4254 1.44327 -0.144697 31.3895 -34.0399 -24.8412 20.2333 13.2157 55.3215 -8.92791 9.64481 -1.88077 -14.9446 0.747338 0.0785442 -50.8611 -18.1304 -91.0768 3.23209 54.9275 -18.0097 5.82328 9.61819 -0.917488 -4.90703 -8.49816 8.62341 8.03948 -14.5163 -16.6804 1.07687 32.0593 -9.8177 -2.70983 -17.4539 -0.473684 0.0462048 0.000530889 0.662642 
13.5249 97.3017 3.0403 -7.77081 5.25421 -87.278 3.36502 -16.013 -3.4102 151.941 88.2045 -135.022 -7.88406 -14.0912 -0.380811 -1.31804e-009 8.75243e-006 -1.47668e-008 -7.27376 18.7334 -4.66043 22.0974 -6.35011 -7.40335 32.6701 1.61972 0.119046 33.2788 -32.0424 -11.4134 16.0809 14.8064 53.8048 -9.19411 9.57087 -0.947365 -20.3838 1.27382 -1.25207 -37.6984 -14.4028 -82.6542 4.3136 49.0555 -21.2316 5.82328 9.61819 -0.917488 -5.65392 -6.25384 4.71111 8.33524 -10.6486 -9.57844 3.37914 29.5458 -16.1163 -1.24512 -18.5941 -0.367144 0.0462048 0.000530889 0.662642 
10.5214 97.9802 3.08296 -8.48249 4.53245 -88.4796 1.72118 -21.554 -3.74842 168.981 85.5489 -151.503 -7.46088 -15.7444 -0.456399 -1.31804e-009 8.75243e-006 -1.47668e-008 -2.86247 17.5986 -2.96895 16.088 -5.37881 -4.30408 33.5504 1.66614 0.153992 34.7447 -29.6411 2.54911 12.4425 16.4181 52.2813 -9.11741 9.54123 -0.484554 -24.3487 1.67596 -1.97812 -26.8854 -7.70793 -74.564 6.56966 42.6285 -24.9893 5.82328 9.61819 -0.917488 -5.69353 -4.79853 0.713233 8.31967 -6.73593 -4.89615 4.07652 27.2457 -19.5447 0.271343 -19.2807 -0.222132 0.0462048 0.000530889 0.662642 
7.44256 98.5309 3.17438 -9.3602 3.8999 -89.9535 0.389591 -26.1457 -3.79648 168.338 85.6718 -150.054 -6.89422 -17.5907 -0.520416 -1.31804e-009 8.75243e-006 -1.47668e-008 2.09324 16.5152 -1.42763 9.19914 -3.52171 -1.31046 32.8187 1.63599 0.145581 36.6623 -28.5196 16.8081 8.56433 18.4856 50.7836 -9.28497 9.49079 0.116762 -27.6154 1.9973 -2.41451 -22.7427 -1.03915 -66.4459 9.0553 40.1997 -28.4303 5.82328 9.61819 -0.917488 -5.2324 -4.44233 -2.78852 8.03693 -2.63544 -3.7477 3.30459 25.2629 -18.6405 1.16362 -19.8649 -0.126752 0.0462048 0.000530889 0.662642 
4.23493 98.9005 3.23169 -10.1481 3.33099 -91.6834 -0.286697 -29.9345 -3.26062 145.913 88.4341 -127.604 -6.69789 -18.5924 -0.557629 -1.31804e-009 8.75243e-006 -1.47668e-008 6.75577 15.4874 -0.00584267 2.47551 -1.42338 1.51172 31.2309 1.57824 0.14616 39.2372 -28.6213 31.2066 4.42831 21.0431 48.9479 -9.8948 9.36788 1.33667 -31.2346 2.33473 -2.75291 -23.3288 2.82203 -56.1956 11.1238 41.0734 -31.3532 5.82328 9.61819 -0.917488 -4.52628 -4.62865 -5.54138 7.6041 1.47033 -4.069 2.10299 23.327 -16.0454 1.38801 -20.8722 -0.096342 0.0462048 0.000530889 0.662642 
0.920306 99.0877 3.20473 -10.633 2.7856 -93.3168 -0.514223 -32.9635 -2.41089 11.6682 85.6933 6.87207 -6.80226 -18.7726 -0.577639 -1.31804e-009 8.75243e-006 -1.47668e-008 10.6196 14.789 1.27814 -3.2755 0.118157 3.99944 29.0009 1.4876 0.116468 42.1927 -28.8895 45.1365 0.474302 23.9609 46.0636 -10.6433 9.21073 2.6976 -35.2528 2.6977 -3.01749 -25.2924 3.93071 -43.1794 12.861 42.2379 -33.5906 5.82328 9.61819 -0.917488 -4.08977 -4.80449 -7.67647 6.99629 5.18411 -4.48436 1.22513 21.5008 -13.8022 1.47298 -22.0613 -0.0780153 0.0462048 0.000530889 0.662642 
-2.45612 99.1066 3.10122 -10.7733 2.44501 -94.4704 -0.544186 -34.7642 -1.64189 4.15689 77.4684 15.198 -6.7041 -19.1734 -0.589597 -1.31804e-009 8.75243e-006 -1.47668e-008 13.6447 14.6024 2.36805 -7.69251 0.713256 6.00499 25.86 1.33436 -0.0182272 44.7842 -28.4999 57.6933 -2.83479 27.2882 41.3257 -11.7199 9.0578 3.52859 -38.7225 3.0274 -3.22988 -27.5746 2.38874 -28.1113 14.2992 43.3584 -34.9611 5.82328 9.61819 -0.917488 -4.05887 -4.90506 -9.41528 6.36969 8.28814 -5.0384 0.849985 20.095 -11.852 1.67491 -23.0443 -0.043527 0.0462048 0.000530889 0.662642 
-5.91812 98.9902 2.93991 -10.5777 2.38347 -95.1938 -0.349927 -35.009 -0.901255 2.32153 66.2697 17.4279 -6.31567 -19.2276 -0.552975 -1.31804e-009 8.75243e-006 -1.47668e-008 15.9922 14.6 3.36149 -11.0659 0.661204 7.63891 22.2335 1.13437 -0.295943 44.9466 -27.3787 67.8182 -4.20118 30.0162 33.9977 -13.5601 8.82866 4.29427 -40.7282 3.23942 -3.37684 -28.7261 0.352191 -12.3402 14.3416 43.6791 -34.5732 5.82328 9.61819 -0.917488 -3.88124 -5.08295 -10.982 5.9994 11.0667 -5.48337 0.804471 18.7541 -10.2689 1.83028 -23.8512 -0.0140264 0.0462048 0.000530889 0.662642 
-9.51256 98.7166 2.745 -10.2261 2.5529 -95.6469 0.116632 -33.8063 0.219101 1.53583 53.1903 18.3279 -5.93572 -17.9882 -0.453678 -1.31804e-009 8.75243e-006 -1.47668e-008 17.8839 14.3693 4.37839 -13.8758 0.798314 9.17646 19.0503 0.939861 -0.68057 43.7521 -27.247 76.4746 -2.85433 33.2092 23.8174 -15.537 8.47333 5.78186 -41.1525 3.27892 -3.39353 -29.0724 1.30164 2.80709 12.1379 42.5961 -31.6481 5.82328 9.61819 -0.917488 -3.21216 -5.49755 -12.5685 5.94318 13.9876 -5.6846 0.886058 17.0295 -9.27379 1.99323 -24.8799 0.0221852 0.0462048 0.000530889 0.662642 
-13.3013 98.1178 2.56922 -10.0897 3.00434 -95.9258 0.753794 -31.4511 1.94694 1.25901 40.9489 19.5675 -5.93103 -16.7863 -0.395942 -1.31804e-009 8.75243e-006 -1.47668e-008 19.6309 13.8347 5.37472 -16.2151 1.69884 10.7514 16.5101 0.778026 -1.09109 49.7669 -28.7665 88.0652 2.61742 44.59 10.4444 -15.9075 8.2526 7.20661 -40.4752 3.19057 -3.31118 -30.0233 3.11964 16.5708 8.52169 42.6156 -26.9325 5.82328 9.61819 -0.917488 -2.38032 -6.17875 -14.1372 6.1262 17.1047 -5.93286 1.03152 15.7292 -8.45166 2.54487 -26.4842 0.1359 0.0462048 0.000530889 0.662642 
-17.3404 97.1819 2.44596 -10.24 3.5951 -96.2347 1.1998 -28.4713 3.9092 1.2076 32.4689 21.0318 -6.31762 -16.4387 -0.407738 -1.31804e-009 8.75243e-006 -1.47668e-008 21.0664 12.9895 6.38653 -17.9338 3.12406 12.3228 14.1187 0.657438 -1.41193 50.6171 -28.5093 95.7912 10.8969 52.1315 -5.24903 -13.5175 8.50777 7.24 -39.052 3.04147 -3.20864 -28.4711 -0.956312 29.371 4.48739 47.7278 -22.1845 5.82328 9.61819 -0.917488 -1.51596 -6.6516 -15.4559 6.28556 20.1273 -6.44492 1.12661 15.6913 -7.16588 3.32885 -28.3362 0.314148 0.0462048 0.000530889 0.662642 
-21.6582 96.1219 2.34958 -10.3154 3.81745 -96.7444 1.04824 -25.5904 5.67486 1.17477 28.7584 21.3698 -5.80088 -14.861 -0.301059 -1.31804e-009 8.75243e-006 -1.47668e-008 21.4114 11.5882 7.60204 -18.7379 4.57819 13.7624 11.8599 0.576222 -1.61452 50.5185 -27.7667 100.29 17.9439 58.0435 -15.5857 -9.37404 9.02909 6.41759 -37.0144 2.85953 -3.11822 -24.2572 -5.78616 42.2672 0.870175 51.3124 -18.0659 5.82328 9.61819 -0.917488 -0.271152 -6.25421 -16.4275 5.96894 22.7824 -7.13434 0.900249 16.5869 -5.49071 4.04632 -30.0734 0.505276 0.0462048 0.000530889 0.662642 
-26.2122 95.0893 2.22685 -10.2662 3.21433 -97.1342 0.177648 -23.4768 7.70042 1.09699 28.9603 19.6845 -2.5192 -11.0528 -0.0387216 -1.31804e-009 8.75243e-006 -1.47668e-008 19.9841 9.55558 8.90296 -18.154 6.0743 14.7193 10.3753 0.496709 -1.92246 52.4846 -26.6855 102.999 18.207 61.9068 -15.7543 -6.32649 9.36051 6.02865 -34.9799 2.7045 -3.07857 -20.7009 -7.48191 53.7452 -1.91592 52.165 -14.7798 5.82328 9.61819 -0.917488 1.03212 -5.323 -17.1247 4.895 24.9861 -7.93308 0.205895 18.2199 -3.81349 5.69099 -31.7937 0.931167 0.0462048 0.000530889 0.662642 
